# xmcd
#
# Track frame offsets:
#	150
#	28070
#	44955
#	60730
#	73480
#	87903
#	107363
#	124776
#	142349
#	156999
#	171497
#	180477
#	193987
#	208114
#	238736
#	255123
#	271794
#	286741
#	298691
#
# Disc length: 4158 seconds
#
# Revision: 0
# Processed by: cddbd v1.4PL0 Copyright (c) Steve Scherf et al.
# Submitted via: EasyCDDAExtractor 4.6.0.1
#
DISCID=2f103c13
DTITLE=Bruno and Marrone - Acústico Em Araguari - MG
DYEAR=2000
DGENRE=Sertanejo
TTITLE0=Detalhes
TTITLE1=Só Quero Te Dizer
TTITLE2=Não Te Quero Mais
TTITLE3=Fio de Cabelo
TTITLE4=Goias É Mais
TTITLE5=Passou Da Conta
TTITLE6=Vida Vazia
TTITLE7=Parabéns Pra Você
TTITLE8=Acorrentado em você
TTITLE9=Programa de fim de semana
TTITLE10=Perdão
TTITLE11=Vivendo de passado
TTITLE12=Favo de Mel
TTITLE13=Fruto Especial
TTITLE14=Machuca Demais
TTITLE15=Agarrado Em Mim
TTITLE16=Preciso Amar De Novo
TTITLE17=Dormi Na Praça
TTITLE18=24 Horas De Amor
EXTD=
EXTT0=
EXTT1=
EXTT2=
EXTT3=
EXTT4=
EXTT5=
EXTT6=
EXTT7=
EXTT8=
EXTT9=
EXTT10=
EXTT11=
EXTT12=
EXTT13=
EXTT14=
EXTT15=
EXTT16=
EXTT17=
EXTT18=
PLAYORDER=
